<svg width="20" height="20" viewBox="0 0 20 20" fill="none" xmlns="http://www.w3.org/2000/svg">
<path fill-rule="evenodd" clip-rule="evenodd" d="M2.99994 17C2.99994 16.7348 3.1053 16.4805 3.29283 16.2929C3.48037 16.1054 3.73472 16 3.99994 16H15.9999C16.2652 16 16.5195 16.1054 16.707 16.2929C16.8946 16.4805 16.9999 16.7348 16.9999 17C16.9999 17.2653 16.8946 17.5196 16.707 17.7072C16.5195 17.8947 16.2652 18 15.9999 18H3.99994C3.73472 18 3.48037 17.8947 3.29283 17.7072C3.1053 17.5196 2.99994 17.2653 2.99994 17ZM6.29294 9.29305C6.48047 9.10558 6.73477 9.00026 6.99994 9.00026C7.2651 9.00026 7.51941 9.10558 7.70694 9.29305L8.99994 10.586V3.00005C8.99994 2.73483 9.1053 2.48048 9.29283 2.29294C9.48037 2.1054 9.73472 2.00005 9.99994 2.00005C10.2652 2.00005 10.5195 2.1054 10.707 2.29294C10.8946 2.48048 10.9999 2.73483 10.9999 3.00005V10.586L12.2929 9.29305C12.3852 9.19754 12.4955 9.12135 12.6175 9.06894C12.7395 9.01653 12.8708 8.98895 13.0035 8.98779C13.1363 8.98664 13.268 9.01194 13.3909 9.06222C13.5138 9.11251 13.6254 9.18676 13.7193 9.28065C13.8132 9.37454 13.8875 9.4862 13.9378 9.60909C13.988 9.73199 14.0133 9.86367 14.0122 9.99645C14.011 10.1292 13.9834 10.2604 13.931 10.3825C13.8786 10.5045 13.8024 10.6148 13.7069 10.707L10.7069 13.707C10.5194 13.8945 10.2651 13.9998 9.99994 13.9998C9.73477 13.9998 9.48047 13.8945 9.29294 13.707L6.29294 10.707C6.10547 10.5195 6.00015 10.2652 6.00015 10C6.00015 9.73488 6.10547 9.48057 6.29294 9.29305Z" fill="white"/>
</svg>
