<svg width="19" height="19" viewBox="0 0 19 19" fill="none" xmlns="http://www.w3.org/2000/svg">
<g clip-path="url(#clip0_324_61)">
<path fill-rule="evenodd" clip-rule="evenodd" d="M13.3343 5.18372C12.3534 4.24821 11.0444 3.73856 9.69 3.75951C7.2116 3.75951 5.1067 5.43155 4.35619 7.68305C3.95824 8.86291 3.95824 10.1406 4.35618 11.3204H4.35967C5.11366 13.5684 7.21508 15.2405 9.69349 15.2405C10.9728 15.2405 12.0712 14.9133 12.9224 14.3353V14.3329C13.9243 13.6697 14.6084 12.626 14.8214 11.4461H9.69001V7.78783H18.6507C18.7624 8.42315 18.8148 9.07242 18.8148 9.7182C18.8148 12.6077 17.7821 15.0506 15.9854 16.7052L15.9873 16.7066C14.4129 18.1587 12.2522 19 9.69 19C6.09805 19 2.81328 16.9754 1.20056 13.7674C-0.146845 11.0831 -0.146841 7.92046 1.20057 5.23611C2.81329 2.02464 6.09805 -6.75209e-07 9.69 -6.75209e-07C12.0497 -0.0279265 14.3292 0.858717 16.0466 2.47143L13.3343 5.18372Z" fill="white"/>
</g>
<defs>
<clipPath id="clip0_324_61">
<rect width="19" height="19" fill="white"/>
</clipPath>
</defs>
</svg>
