<svg width="78" height="40" viewBox="0 0 78 40" fill="none" xmlns="http://www.w3.org/2000/svg">
<g clip-path="url(#clip0_312_23)">
<path d="M72.8038 26.5259H73.128C73.1992 26.5259 73.2529 26.5173 73.2897 26.5002C73.3261 26.4833 73.3555 26.4567 73.3768 26.4198C73.3983 26.3835 73.4095 26.3409 73.4095 26.2923C73.4095 26.2224 73.3884 26.1674 73.3474 26.1273C73.3063 26.0871 73.2453 26.0671 73.1644 26.0671H72.8038V26.5259ZM72.6533 27.3018V25.9144H73.1595C73.2649 25.9144 73.3429 25.9274 73.3931 25.9532C73.4434 25.9789 73.4849 26.0218 73.517 26.0819C73.5495 26.1421 73.5656 26.2117 73.5656 26.291C73.5656 26.3957 73.5381 26.4802 73.4831 26.5451C73.4285 26.61 73.3487 26.6514 73.2445 26.6689C73.2873 26.6944 73.3201 26.7206 73.3425 26.7468C73.3875 26.7999 73.4266 26.8588 73.461 26.9239L73.6593 27.3018H73.4694L73.317 27.0136C73.2579 26.9009 73.2134 26.8251 73.1832 26.7851C73.1535 26.7457 73.1243 26.7189 73.0964 26.7051C73.0679 26.6913 73.0288 26.6845 72.9779 26.6845H72.8038V27.3018H72.6533Z" fill="white"/>
<path d="M57.621 3.86588C59.0281 5.81445 58.4057 9.14007 56.14 11.7718L57.4552 12.895C60.2792 9.61433 60.9251 5.48666 59.0271 2.8574C57.3478 0.53223 52.3322 -2.47941 37.6016 3.4765C37.4182 3.54985 37.2201 3.63225 37.0149 3.71755L39.1946 4.7046C52.5729 -0.502827 56.5329 2.35965 57.621 3.86588ZM73.6481 8.68352L74.3214 9.78533C67.8705 13.2618 36.389 29.8313 18.2745 32.1246C13.8953 32.6792 10.94 31.9019 9.95343 29.937C8.95303 27.9436 9.97308 24.7828 12.4352 22.2501C13.7069 20.9413 15.0119 19.7148 16.3264 18.5631L16.4986 18.1552V16.142C14.7054 17.6381 12.9201 19.2708 11.1912 21.0496C8.17864 24.1478 7.05892 28.0297 8.40444 30.709C9.35273 32.5982 11.8736 34.6749 18.4924 33.8366C37.2271 31.4651 68.8041 14.7466 75.2252 11.2633L75.9128 12.388L78 8.58175L73.6481 8.68352Z" fill="white"/>
<path d="M46.1394 12.9972C47.1998 12.3985 48.3512 12.0979 49.5954 12.0979C50.732 12.0979 51.7765 12.327 52.727 12.7838C53.6782 13.2401 54.4915 13.9111 55.1706 14.7954L56.4073 13.8497C55.6569 12.8186 54.6941 12.0178 53.519 11.4459C52.3445 10.8737 51.0283 10.588 49.5705 10.588C47.1572 10.588 45.1481 11.37 43.5456 12.9333C41.9424 14.4969 41.1407 16.4236 41.1407 18.7139C41.1407 20.8912 41.8024 22.7491 43.1265 24.2875C44.7044 26.1097 46.8597 27.0204 49.5918 27.0204C51.0283 27.0204 52.3286 26.7447 53.4925 26.1946C54.6565 25.6441 55.6284 24.8645 56.4073 23.8567L55.1706 22.9213C53.6999 24.648 51.8739 25.5102 49.6903 25.5102C47.7052 25.5102 46.0611 24.873 44.7569 23.5963C43.453 22.3197 42.8016 20.7282 42.8016 18.8202C42.8016 17.5581 43.0921 16.4225 43.6752 15.4114C44.2584 14.4017 45.0795 13.5965 46.1394 12.9972Z" fill="white"/>
<path d="M71.78 22.2054C71.198 23.2296 70.3882 24.0357 69.35 24.6256C68.3107 25.2152 67.1827 25.5102 65.9619 25.5102C64.1348 25.5102 62.5736 24.8695 61.2781 23.5862C59.9826 22.3037 59.3354 20.7309 59.3354 18.8683C59.3354 17.6105 59.6278 16.4696 60.2132 15.4464C60.7982 14.4227 61.6118 13.6091 62.6542 13.0045C63.6962 12.4006 64.7985 12.098 65.9619 12.098C67.1459 12.098 68.2666 12.4006 69.3235 13.0045C70.3797 13.6091 71.198 14.4136 71.78 15.4195C72.3615 16.4248 72.652 17.5501 72.652 18.7939C72.652 20.0451 72.3615 21.1823 71.78 22.2054ZM71.8444 12.9604C70.247 11.3791 68.2633 10.5878 65.8926 10.5878C64.43 10.5878 63.0715 10.9518 61.8151 11.6789C60.5591 12.4058 59.566 13.4105 58.8389 14.6943C58.1111 15.9769 57.7477 17.3707 57.7477 18.8736C57.7477 21.1288 58.5461 23.0507 60.1427 24.6386C61.7403 26.2268 63.6997 27.0204 66.0206 27.0204C68.313 27.0204 70.2563 26.2233 71.8501 24.6278C73.4436 23.0324 74.2403 21.0894 74.2403 18.7997C74.2403 16.4881 73.4413 14.5416 71.8444 12.9604Z" fill="white"/>
<path d="M16.9901 19.8838V13.1901L22.7355 19.8838H16.9901ZM28.5096 26.6111H30.6767L17.64 11.4226H15.3435V26.5744H16.9901V21.5246H24.1441L28.5096 26.6111Z" fill="white"/>
<path d="M1.64659 19.8838V13.1901L7.39198 19.8838H1.64659ZM13.1661 26.6111H15.3332L2.2965 11.4226H0V26.5744H1.64659V21.5246H8.80056L13.1661 26.6111Z" fill="white"/>
<path d="M73.1071 25.5122C72.4785 25.5122 71.9669 26.0219 71.9669 26.648C71.9669 27.2745 72.4785 27.7842 73.1071 27.7842C73.7359 27.7842 74.2475 27.2745 74.2475 26.648C74.2475 26.0219 73.7359 25.5122 73.1071 25.5122ZM74.1563 26.648C74.1563 27.2247 73.6859 27.6934 73.1071 27.6934C72.5289 27.6934 72.0579 27.2247 72.0579 26.648C72.0579 26.072 72.5289 25.6026 73.1071 25.6026C73.6859 25.6026 74.1563 26.072 74.1563 26.648Z" fill="white"/>
<path d="M33.5418 18.7996H32.6007V12.5852H34.206C36.6491 12.5852 37.8879 13.484 37.8879 15.2573C37.8879 17.6078 36.4255 18.7996 33.5418 18.7996ZM44.3731 28.5023L36.5039 19.3514L36.695 19.271C38.6937 18.4315 39.6652 17.0538 39.6652 15.0599C39.6652 13.8648 39.3066 12.9826 38.5694 12.3625C37.8279 11.7407 36.7349 11.4255 35.3209 11.4255H30.8925V26.5494H32.6007V19.9593H34.9258L43.4277 30.1465H74.2961V28.5023H44.3731Z" fill="white"/>
</g>
<defs>
<clipPath id="clip0_312_23">
<rect width="78" height="40" fill="white"/>
</clipPath>
</defs>
</svg>
