<svg width="15" height="20" viewBox="0 0 15 20" fill="none" xmlns="http://www.w3.org/2000/svg">
<path d="M14.1665 5.4348H10.8509C10.5879 5.43409 10.3358 5.32909 10.1501 5.14283C9.96432 4.95657 9.86001 4.70425 9.86001 4.4412V1.0932H10.7861V4.4439C10.7861 4.46134 10.7928 4.47812 10.8049 4.4907C10.817 4.50328 10.8335 4.5107 10.8509 4.5114H14.1665V5.4348Z" fill="#2F3D48"/>
<path d="M12.7139 9.65768C12.5782 9.51198 12.4145 9.39507 12.2327 9.3139C12.0509 9.23273 11.8546 9.18895 11.6555 9.18518C10.9819 9.13064 10.3057 9.11621 9.63048 9.14198C9.54555 9.15086 9.46046 9.12669 9.39288 9.07448C7.88088 7.91078 7.36788 7.45448 6.34188 6.52028C6.18161 6.38326 6.05894 6.20763 5.98548 6.00998C5.93034 5.85148 5.91098 5.68274 5.92878 5.51588C5.96774 5.09593 5.92089 4.67245 5.79108 4.27118C5.75395 4.14354 5.68514 4.02736 5.59106 3.93345C5.49698 3.83953 5.38069 3.77093 5.25298 3.73402C5.12528 3.69711 4.99031 3.69309 4.86064 3.72233C4.73096 3.75157 4.61079 3.81313 4.51128 3.90128C4.38951 3.98282 4.29306 4.09691 4.23292 4.23056C4.17278 4.36421 4.15135 4.51205 4.17108 4.65728C4.19741 4.86105 4.2684 5.0565 4.37898 5.22968C4.59154 5.56517 4.8496 5.86957 5.14578 6.13418C5.18725 6.16774 5.21784 6.21284 5.2337 6.26378C5.24955 6.31471 5.24997 6.36921 5.23488 6.42038C4.93518 7.67048 4.63548 8.92058 4.31418 10.168C4.30498 10.2155 4.28514 10.2604 4.25615 10.2992C4.22716 10.338 4.18977 10.3698 4.14678 10.3921C3.70488 10.632 3.30016 10.9349 2.94528 11.2912C2.8301 11.4158 2.73861 11.5603 2.67528 11.7178C2.61782 11.8439 2.5901 11.9815 2.59428 12.1201C2.59637 12.2347 2.62619 12.3472 2.68121 12.4478C2.73622 12.5484 2.81478 12.6342 2.91018 12.6979C3.02257 12.758 3.15149 12.7798 3.27738 12.76C3.44941 12.7333 3.61414 12.6717 3.76136 12.5788C3.90859 12.4859 4.03517 12.3638 4.13328 12.22C4.42078 11.8086 4.62108 11.3427 4.72188 10.8511C4.74348 10.7701 4.75698 10.6945 4.85688 10.6486C5.40547 10.4062 5.97477 10.2137 6.55788 10.0735C7.42928 9.87897 8.31514 9.75616 9.20658 9.70628C9.28678 9.70365 9.36497 9.73165 9.42528 9.78458C9.99588 10.2004 10.5773 10.6 11.1695 10.9834C11.3467 11.0985 11.5449 11.1774 11.7527 11.2156C11.9488 11.2561 12.1527 11.2354 12.3367 11.1562C12.5206 11.0771 12.6758 10.9433 12.7813 10.773C12.8868 10.6028 12.9374 10.4042 12.9263 10.2042C12.9152 10.0043 12.8429 9.81253 12.7193 9.65498L12.7139 9.65768ZM3.45018 12.1201C3.39618 12.1525 3.27198 12.2281 3.19908 12.1822C3.18214 12.1663 3.1688 12.1471 3.15995 12.1256C3.1511 12.1042 3.14695 12.0811 3.14778 12.058C3.14778 11.8393 3.35298 11.6395 3.51498 11.4964C3.67941 11.351 3.86071 11.2259 4.05498 11.1238C3.96048 11.3911 3.75258 11.9392 3.45018 12.1201ZM4.78398 4.77608C4.75988 4.7193 4.74441 4.65923 4.73808 4.59788C4.73661 4.52594 4.76038 4.45577 4.80526 4.39954C4.85015 4.34331 4.91331 4.30458 4.98378 4.29008C5.14308 4.24958 5.21868 4.34948 5.25378 4.47098C5.35843 4.83187 5.39325 5.20943 5.35638 5.58338C5.11601 5.3519 4.92016 5.07826 4.77858 4.77608H4.78398ZM4.94868 10.0033C5.21868 8.90708 5.48868 7.82978 5.75868 6.72008C6.67938 7.57868 7.61628 8.39138 8.63958 9.19058C7.37422 9.28002 6.12884 9.55474 4.94328 10.006L4.94868 10.0033ZM12.317 10.4542C12.2896 10.5206 12.2426 10.5771 12.1823 10.6162C12.1221 10.6552 12.0513 10.675 11.9795 10.6729C11.8233 10.6759 11.6695 10.6337 11.5367 10.5514C11.2073 10.3462 10.94 10.1707 10.8995 10.1383C10.6881 9.98339 10.4692 9.83921 10.2434 9.70628H11.1938C11.4912 9.69754 11.7875 9.74707 12.0659 9.85208C12.1275 9.86766 12.1846 9.89752 12.2325 9.93925C12.2805 9.98098 12.3179 10.0334 12.3418 10.0923C12.3657 10.1512 12.3755 10.2149 12.3702 10.2782C12.365 10.3415 12.3449 10.4027 12.3116 10.4569L12.317 10.4542Z" fill="#2F3D48"/>
<path d="M14.1233 4.27115L11.0102 1.14455C10.6745 0.831683 10.2376 0.649657 9.77902 0.631546H1.36312C1.0996 0.631546 0.846877 0.736229 0.660541 0.922565C0.474205 1.1089 0.369522 1.36163 0.369522 1.62515V18.8511C0.370237 19.1142 0.475235 19.3662 0.661493 19.552C0.847752 19.7377 1.10007 19.842 1.36312 19.842H13.6373C13.8999 19.8413 14.1515 19.7367 14.3372 19.551C14.5229 19.3654 14.6275 19.1137 14.6282 18.8511V5.50235C14.6095 5.04543 14.4308 4.60962 14.1233 4.27115ZM5.42932 17.0448C5.30836 17.2288 5.13543 17.3726 4.93252 17.4579C4.69246 17.5583 4.43396 17.6071 4.17382 17.601H3.50962V18.5082H2.74822V15.2196H4.17382C4.43421 15.2137 4.69287 15.2634 4.93252 15.3654C5.13484 15.4518 5.30752 15.5954 5.42932 15.7785C5.5429 15.9702 5.60283 16.1889 5.60283 16.4117C5.60283 16.6345 5.5429 16.8532 5.42932 17.0448V17.0448ZM9.22552 17.7279C9.07053 17.9786 8.84646 18.1793 8.58022 18.3057C8.28462 18.447 7.96009 18.5173 7.63252 18.5109H6.15022V15.2196H7.64602C7.97358 15.2134 8.29808 15.2837 8.59372 15.4248C8.85753 15.5516 9.07956 15.7511 9.23362 15.9999C9.38293 16.2639 9.46139 16.562 9.46139 16.8653C9.46139 17.1686 9.38293 17.4667 9.23362 17.7306L9.22552 17.7279ZM12.5141 15.8379H10.7888V16.71H12.3116V17.3202H10.7888V18.519H10.0274V15.2196H12.5141V15.8379ZM13.7102 13.9101H1.29022V1.62245C1.28986 1.61371 1.29126 1.60499 1.29436 1.59682C1.29745 1.58864 1.30217 1.58118 1.30822 1.57487C1.31427 1.56856 1.32154 1.56355 1.32958 1.56012C1.33763 1.5567 1.34628 1.55494 1.35502 1.55495H9.79252C10.0042 1.57288 10.205 1.65588 10.3676 1.79255L13.4645 4.92185C13.6042 5.08544 13.69 5.28817 13.7102 5.50235V13.9101Z" fill="#2F3D48"/>
<path d="M4.13047 15.838H3.50947V16.9801H4.13047C4.31607 16.9919 4.50007 16.9395 4.65157 16.8316C4.71167 16.7798 4.75901 16.7149 4.78992 16.6418C4.82082 16.5688 4.83446 16.4896 4.82977 16.4104C4.83489 16.3304 4.82148 16.2503 4.79057 16.1763C4.75966 16.1023 4.7121 16.0364 4.65157 15.9838C4.49972 15.8769 4.31575 15.8254 4.13047 15.838V15.838Z" fill="#2F3D48"/>
<path d="M7.60013 15.8432H6.90623V17.8844H7.60283C7.89076 17.9005 8.17363 17.8037 8.39123 17.6144C8.5827 17.4136 8.68951 17.1467 8.68951 16.8692C8.68951 16.5917 8.5827 16.3249 8.39123 16.124C8.17462 15.9302 7.89047 15.8293 7.60013 15.8432V15.8432Z" fill="#2F3D48"/>
</svg>
