<svg width="22" height="22" viewBox="0 0 22 22" fill="none" xmlns="http://www.w3.org/2000/svg">
<path d="M7.96043 12.2303C8.14559 11.8599 8.25009 11.4419 8.25009 11.0001C8.25009 10.5583 8.14559 10.1403 7.96043 9.76993V12.2303ZM7.96043 12.2303C7.68332 12.7843 7.22728 13.2285 6.66618 13.491C6.10508 13.7535 5.47179 13.8189 4.86892 13.6765C4.26604 13.5341 3.72888 13.1924 3.34447 12.7066C2.96006 12.2209 2.75092 11.6196 2.75092 11.0001C2.75092 10.3806 2.96006 9.77932 3.34447 9.29357C3.72888 8.80781 4.26604 8.46607 4.86892 8.32371C5.47179 8.18134 6.10508 8.2467 6.66618 8.50918C7.22728 8.77167 7.68332 9.21591 7.96043 9.76993V12.2303ZM7.96043 12.2303L14.0398 15.2699L7.96043 12.2303ZM7.96043 9.76993L14.0398 6.73027L7.96043 9.76993ZM14.0398 6.73027C14.2013 7.0533 14.4249 7.34135 14.6978 7.57798C14.9706 7.8146 15.2874 7.99516 15.6301 8.10935C15.9728 8.22354 16.3345 8.26912 16.6948 8.24349C17.0551 8.21786 17.4068 8.12152 17.7298 7.95997C18.0528 7.79843 18.3409 7.57483 18.5775 7.30196C18.8141 7.02909 18.9947 6.71229 19.1089 6.36963C19.2231 6.02698 19.2687 5.66519 19.243 5.30493C19.2174 4.94466 19.1211 4.59297 18.9595 4.26993C18.6332 3.61753 18.0612 3.12146 17.3692 2.89085C16.6772 2.66023 15.9219 2.71396 15.2695 3.04022C14.6171 3.36649 14.121 3.93855 13.8904 4.63056C13.6598 5.32258 13.7135 6.07787 14.0398 6.73027V6.73027ZM14.0398 15.2699C13.7135 15.9225 13.6598 16.6779 13.8905 17.37C14.1212 18.0621 14.6174 18.6342 15.2699 18.9604C15.9224 19.2867 16.6778 19.3404 17.37 19.1097C18.0621 18.879 18.6342 18.3828 18.9604 17.7303C19.2867 17.0777 19.3404 16.3223 19.1097 15.6302C18.879 14.9381 18.3828 14.366 17.7303 14.0398C17.4072 13.8782 17.0554 13.7819 16.6951 13.7563C16.3348 13.7307 15.9729 13.7763 15.6302 13.8905C14.9381 14.1212 14.366 14.6174 14.0398 15.2699V15.2699Z" stroke="white" stroke-width="1.83333" stroke-linecap="round" stroke-linejoin="round"/>
</svg>
