<svg width="19" height="19" viewBox="0 0 19 19" fill="none" xmlns="http://www.w3.org/2000/svg">
<g clip-path="url(#clip0_324_51)">
<path d="M5.97721 17.2188C13.1453 17.2188 17.067 11.2787 17.067 6.129C17.067 5.96201 17.0633 5.79131 17.0558 5.62432C17.8187 5.0726 18.4771 4.38923 19 3.60631C18.2895 3.92242 17.5351 4.12887 16.7627 4.21861C17.576 3.73108 18.185 2.9652 18.4768 2.06293C17.7116 2.51639 16.8748 2.83627 16.0023 3.00885C15.4144 2.38418 14.6371 1.97058 13.7906 1.83199C12.9441 1.69339 12.0754 1.83753 11.319 2.24211C10.5626 2.64669 9.96059 3.28917 9.60596 4.07024C9.25133 4.8513 9.16388 5.72743 9.35713 6.56318C7.80781 6.48544 6.29212 6.08296 4.90832 5.38186C3.52452 4.68075 2.30351 3.69667 1.32443 2.4934C0.826816 3.35135 0.674545 4.36658 0.898566 5.33277C1.12259 6.29896 1.70609 7.14359 2.53049 7.69502C1.91158 7.67537 1.30623 7.50874 0.764453 7.20889V7.25713C0.763899 8.15748 1.07516 9.03025 1.64533 9.72706C2.2155 10.4239 3.00938 10.9017 3.89203 11.0794C3.31871 11.2363 2.71699 11.2591 2.13342 11.1462C2.38249 11.9205 2.86708 12.5977 3.51957 13.0834C4.17206 13.569 4.95989 13.8388 5.77311 13.8552C4.3925 14.9397 2.68705 15.5279 0.931445 15.5251C0.620102 15.5246 0.309066 15.5055 0 15.468C1.78351 16.6122 3.85821 17.2199 5.97721 17.2188Z" fill="white"/>
</g>
<defs>
<clipPath id="clip0_324_51">
<rect width="19" height="19" fill="white"/>
</clipPath>
</defs>
</svg>
