<svg width="19" height="19" viewBox="0 0 19 19" fill="none" xmlns="http://www.w3.org/2000/svg">
<path d="M18.8107 5.70002C18.8107 5.70002 18.6252 4.39006 18.0537 3.81486C17.3301 3.05783 16.5211 3.05412 16.15 3.00959C13.493 2.81662 9.50371 2.81662 9.50371 2.81662H9.49629C9.49629 2.81662 5.50703 2.81662 2.85 3.00959C2.47891 3.05412 1.66992 3.05783 0.946289 3.81486C0.374805 4.39006 0.192969 5.70002 0.192969 5.70002C0.192969 5.70002 0 7.24006 0 8.77638V10.2162C0 11.7526 0.189258 13.2926 0.189258 13.2926C0.189258 13.2926 0.374805 14.6026 0.942578 15.1778C1.66621 15.9348 2.61621 15.9088 3.03926 15.9904C4.56074 16.1352 9.5 16.1797 9.5 16.1797C9.5 16.1797 13.493 16.1723 16.15 15.983C16.5211 15.9385 17.3301 15.9348 18.0537 15.1778C18.6252 14.6026 18.8107 13.2926 18.8107 13.2926C18.8107 13.2926 19 11.7563 19 10.2162V8.77638C19 7.24006 18.8107 5.70002 18.8107 5.70002ZM7.53691 11.9641V6.62404L12.6691 9.30334L7.53691 11.9641Z" fill="white"/>
</svg>
